<svg xmlns="http://www.w3.org/2000/svg" width="150.962" height="150.962" viewBox="0 0 150.962 150.962">
  <g id="Group_66" data-name="Group 66" transform="translate(348.509 30.515)">
    <g id="Group_24" data-name="Group 24" transform="translate(-348.509 -30.515)">
      <path id="Path_13" data-name="Path 13" d="M-273.028,120.447a75.48,75.48,0,0,0,75.481-75.481,75.48,75.48,0,0,0-75.481-75.481,75.48,75.48,0,0,0-75.481,75.481,75.48,75.48,0,0,0,75.481,75.481" transform="translate(348.509 30.515)" fill="#fff"/>
      <path id="Path_14" data-name="Path 14" d="M-319.131-23.209c1.553,2.925,3.032,5.964,4.6,8.862,1.4-2.655,2.766-5.371,4.156-8.046,1.422,2.648,2.771,5.407,4.195,8.046,1.547-2.857,3.041-6.109,4.567-8.8-.354,6.636-.738,13.224-1.115,19.824h-15.255c-.368-6.654-.8-13.2-1.151-19.883" transform="translate(385.85 39.801)" fill="#fff"/>
      <path id="Path_15" data-name="Path 15" d="M-319.131-23.209c1.553,2.925,3.032,5.964,4.6,8.862,1.4-2.655,2.766-5.371,4.156-8.046,1.422,2.648,2.771,5.407,4.195,8.046,1.547-2.857,3.041-6.109,4.567-8.8-.354,6.636-.738,13.224-1.115,19.824h-15.255C-318.348-9.98-318.783-16.525-319.131-23.209Z" transform="translate(385.85 39.801)" stroke="#000" stroke-miterlimit="10" stroke-width="0.051"/>
    </g>
    <rect id="Rectangle_11" data-name="Rectangle 11" width="16.481" height="2.06" transform="translate(-281.27 98.204)"/>
    <g id="Group_25" data-name="Group 25" transform="translate(-326.68 32.443)">
      <path id="Path_16" data-name="Path 16" d="M-254.318,22.248h7.5l5.121-8.346,4.7,8.346h7.926L-237.905,9.1l8.1-11.889h-7.435l-4.454,7.785L-245.9-2.79h-7.681L-245.411,9.1Zm-22.145,0h20.306v-5.61h-13.783V11.869h12.275V6.819h-12.275V2.435h13.433V-2.79h-19.956ZM-295.622,2.435h5.192c1.824,0,3.3.84,3.3,2.7a2.684,2.684,0,0,1-3.016,2.946h-5.471Zm-6.522,19.813h6.522V13.13h4.946c3.05,0,3.47,2.6,3.647,5.121.07.7.175,3.157.736,4h6.452c-.876-.911-.981-4.592-1.051-5.646-.211-2.385-.981-5.364-3.647-6v-.07a6.44,6.44,0,0,0,3.929-6.277c0-5.051-4.349-7.049-8.769-7.049h-12.766Zm-11.231,0h6.522V-2.793h-6.522Zm-19-19.99h5.051c1.367,0,2.664.6,2.664,2.421a2.431,2.431,0,0,1-2.664,2.385h-5.051Zm-6.523,19.99h12.028c5.367,0,9.75-1.824,9.75-7.785a5.942,5.942,0,0,0-4.313-5.927,5.628,5.628,0,0,0,3.3-5.049c0-5.226-4.735-6.348-9.05-6.277H-338.9Zm6.523-10.976h5.226c1.964,0,3.507.736,3.507,2.946,0,2.069-1.438,2.807-3.507,2.807h-5.226Z" transform="translate(338.897 2.793)"/>
    </g>
  </g>
</svg>
