<svg xmlns="http://www.w3.org/2000/svg" viewBox="0 0 398.66 58.48"><defs><style>.cls-1{fill:#fff;}</style></defs><g id="Livello_2" data-name="Livello 2"><g id="Livello_1-2" data-name="Livello 1"><path class="cls-1" d="M353.06,3.25c1.44,1.8,2.15,4.53,2.15,8.17,0,3.37-.66,5.84-2,7.4a6.16,6.16,0,0,1-5,2.34A5.53,5.53,0,0,1,343.67,19c-1.48-1.88-2.23-4.55-2.23-8s.72-6,2.16-7.74a5.61,5.61,0,0,1,4.59-2.13A5.81,5.81,0,0,1,353,3.29m-11.68-.5a10.83,10.83,0,0,0-3.46,8.29,11.34,11.34,0,0,0,3,8.11,10.27,10.27,0,0,0,14.53.24l.31-.32A11.19,11.19,0,0,0,358.75,11a10.86,10.86,0,0,0-3.05-7.88A9.7,9.7,0,0,0,348.5,0a10.21,10.21,0,0,0-7.19,2.79m-30.75.36a14.75,14.75,0,0,1,2.47-.3,4.47,4.47,0,0,1,3.31,1.26,4.33,4.33,0,0,1,1.25,3.25A4.17,4.17,0,0,1,316,10.72a6.87,6.87,0,0,1-4.6,1.33h-.88Zm15.15,19.27a6.51,6.51,0,0,1-2.83-.88,11,11,0,0,1-2.6-2.8l-4.4-6.13a7.27,7.27,0,0,0,4-2,5,5,0,0,0,1.28-3.42A4.72,4.72,0,0,0,320,4a5.72,5.72,0,0,0-2.74-1.83,18.63,18.63,0,0,0-5-.49h-7.78v.58h.8a2.3,2.3,0,0,1,1.83.69,4.37,4.37,0,0,1,.44,2.51V19.26a4.83,4.83,0,0,1-.33,2.32,2.13,2.13,0,0,1-1.94.88h-.8V23h9.2v-.58h-.84a2.24,2.24,0,0,1-1.79-.69,4.44,4.44,0,0,1-.44-2.51v-6.2h2.23l7.23,10h5.69ZM274.26,1.6l-.26,5h.6a4.86,4.86,0,0,1,.69-2.29,2.94,2.94,0,0,1,1.41-1.15,7.25,7.25,0,0,1,2.12-.22h2.57v16.3a4.63,4.63,0,0,1-.35,2.3,2.13,2.13,0,0,1-1.92.82h-.76v.58h9.05v-.58h-.69a2.33,2.33,0,0,1-1.84-.66,4.53,4.53,0,0,1-.42-2.46V2.94h3a4.61,4.61,0,0,1,2.14.43,3.14,3.14,0,0,1,1.29,1.34,5.91,5.91,0,0,1,.48,1.89h.6l-.24-5ZM254.65,2.76a6.92,6.92,0,0,1,2.22.24,2.48,2.48,0,0,1,1.19,1,7.32,7.32,0,0,1,.73,2.31h.61l-.24-4.67H242.72v.58h.75a2.43,2.43,0,0,1,1.89.63,4.59,4.59,0,0,1,.41,2.5V19.2a7.13,7.13,0,0,1-.18,2.06,1.26,1.26,0,0,1-.69.76,3,3,0,0,1-1.43.36h-.75V23h16.44L261,17.61h-.63a12.22,12.22,0,0,1-2,2.94,3.65,3.65,0,0,1-1.58,1,9.19,9.19,0,0,1-2.62.26h-3.62a2.77,2.77,0,0,1-1.2-.18,1.05,1.05,0,0,1-.44-.49,6.7,6.7,0,0,1-.13-1.73v-7h4.69a4.83,4.83,0,0,1,2,.31,1.9,1.9,0,0,1,.92.87,7.72,7.72,0,0,1,.45,2h.58V8.16h-.58a3.48,3.48,0,0,1-.92,2.55,3.72,3.72,0,0,1-2.44.55H248.8V2.82Zm-26.56,19.6a2.92,2.92,0,0,1-1.44-.38,1.41,1.41,0,0,1-.66-.68,7.34,7.34,0,0,1-.2-2.14V5.4A4.82,4.82,0,0,1,226.18,3a2.31,2.31,0,0,1,1.91-.77h.77V1.6h-9.14v.58h.76a2.93,2.93,0,0,1,1.45.38,1.36,1.36,0,0,1,.64.68,6.45,6.45,0,0,1,.21,2.14V19.16a4.71,4.71,0,0,1-.38,2.43,2.26,2.26,0,0,1-1.92.77h-.76v.58h9.15v-.58ZM196.31,3.17a9.67,9.67,0,0,1,2.06-.3,4.76,4.76,0,0,1,2.37.59,4,4,0,0,1,1.6,1.78,5.78,5.78,0,0,1,.57,2.58,4.59,4.59,0,0,1-1.19,3.28,3.72,3.72,0,0,1-2.83,1.26,8.23,8.23,0,0,1-1.1-.07l-1.48-.24Zm1.92,10.11a13.51,13.51,0,0,0,1.67.11,6.8,6.8,0,0,0,4.87-1.64A5.57,5.57,0,0,0,206.5,7.5a5,5,0,0,0-1.14-3.32,6.19,6.19,0,0,0-2.78-2,14.09,14.09,0,0,0-4.52-.59h-7.82v.58h.8a2.3,2.3,0,0,1,1.83.69,4.53,4.53,0,0,1,.42,2.51V19.15a5.09,5.09,0,0,1-.31,2.32,2.13,2.13,0,0,1-1.94.88h-.8v.58h9.14v-.58h-.82a2.28,2.28,0,0,1-1.81-.69,4.44,4.44,0,0,1-.44-2.51V12.94c.68.14,1.33.25,1.92.33"/><path class="cls-1" d="M29.43,21.36a4,4,0,0,1-1,2,1.7,1.7,0,0,1-1.23.49,4.07,4.07,0,0,1-1.57-.57A16.68,16.68,0,0,0,18,21.4a17.78,17.78,0,0,0-9.11,2.44,17.37,17.37,0,0,0-6.55,6.89A20.43,20.43,0,0,0,0,40.48,18.85,18.85,0,0,0,3.61,51.94q4.85,6.54,13.65,6.53a15.71,15.71,0,0,0,8.46-2.23,18.6,18.6,0,0,0,6.22-6.93l-.81-.52Q28,53.17,25.32,54.66a12.19,12.19,0,0,1-6.09,1.47,13.25,13.25,0,0,1-7.07-1.88,11.5,11.5,0,0,1-4.64-5.41A20.88,20.88,0,0,1,6,40.5a25.6,25.6,0,0,1,1.64-9.76A12,12,0,0,1,12.09,25a11.91,11.91,0,0,1,6.38-1.79,11.27,11.27,0,0,1,7.25,2.36q3,2.4,4.63,7.79h.81l-.81-12Z"/><path class="cls-1" d="M107.81,21.36a3.18,3.18,0,0,1-.7,1.63,1.52,1.52,0,0,1-1.11.41,6.06,6.06,0,0,1-2.06-.66,15,15,0,0,0-6-1.38,10.42,10.42,0,0,0-7.45,2.76,8.76,8.76,0,0,0-2.93,6.57,8.44,8.44,0,0,0,1,4A10.93,10.93,0,0,0,91.48,38,55.67,55.67,0,0,0,98,42.1a64.32,64.32,0,0,1,5.57,3.33,7.71,7.71,0,0,1,2.23,2.49,5.48,5.48,0,0,1,.72,2.64,5.34,5.34,0,0,1-1.89,4.08,7.43,7.43,0,0,1-5.17,1.73,10.82,10.82,0,0,1-5.19-1.26A8.91,8.91,0,0,1,90.7,52a17.6,17.6,0,0,1-1.83-5.71h-1V58.4h1a3.26,3.26,0,0,1,.57-1.62,1.39,1.39,0,0,1,1-.39,15.46,15.46,0,0,1,3.23.82,30.79,30.79,0,0,0,3.36,1,16.6,16.6,0,0,0,2.9.23,11.26,11.26,0,0,0,8-2.91,9.17,9.17,0,0,0,3.13-6.94,8.74,8.74,0,0,0-1-4.06,10,10,0,0,0-2.8-3.36,54.35,54.35,0,0,0-6.79-4.09q-6.09-3.27-7.71-5.23a4.51,4.51,0,0,1-1.13-3,5.13,5.13,0,0,1,1.78-3.78,6.34,6.34,0,0,1,4.5-1.66,9.59,9.59,0,0,1,4.65,1.23A8.66,8.66,0,0,1,106,28a15.26,15.26,0,0,1,1.69,5.62h1V21.36Z"/><path class="cls-1" d="M70,26.6a16.08,16.08,0,0,0-12-5.24A17,17,0,0,0,46,26a17.93,17.93,0,0,0-5.76,13.78q0,8.25,5,13.46a17,17,0,0,0,24,.48c.21-.2.41-.4.6-.61A18.59,18.59,0,0,0,75,39.69,18.09,18.09,0,0,0,70,26.6ZM65.8,52.68a10.26,10.26,0,0,1-8.25,3.9A9.19,9.19,0,0,1,50,53Q46.3,48.34,46.3,39.66q0-8.47,3.58-12.86a9.37,9.37,0,0,1,7.64-3.53,9.67,9.67,0,0,1,8,3.55q3.6,4.47,3.58,13.57Q69.05,48.79,65.8,52.68Z"/><path class="cls-1" d="M126.56,22.17l-.42,8.31h1a7.93,7.93,0,0,1,1.15-3.82,4.93,4.93,0,0,1,2.33-1.9,11.69,11.69,0,0,1,3.53-.37h4.26V51.48c0,2-.19,3.26-.57,3.82a3.6,3.6,0,0,1-3.19,1.36h-1.26v1h15v-1h-1.23a4,4,0,0,1-3.06-1.1c-.47-.54-.71-1.9-.71-4.08V24.39h5a7.55,7.55,0,0,1,3.54.72,5.22,5.22,0,0,1,2.16,2.23,10.06,10.06,0,0,1,.78,3.14h1l-.39-8.31Z"/><path class="cls-1" d="M251.57,22.17l-.42,8.31h1a7.83,7.83,0,0,1,1.16-3.82,4.9,4.9,0,0,1,2.32-1.9,11.73,11.73,0,0,1,3.53-.37h4.26V51.48c0,2-.19,3.26-.57,3.82a3.6,3.6,0,0,1-3.19,1.36H258.4v1h15v-1h-1.23a4,4,0,0,1-3.06-1.1c-.47-.54-.71-1.9-.71-4.08V24.39h5a7.55,7.55,0,0,1,3.54.72,5.22,5.22,0,0,1,2.16,2.23,10.06,10.06,0,0,1,.78,3.14h1l-.4-8.31Z"/><path class="cls-1" d="M198.13,55.47a13.54,13.54,0,0,1-2.71-4.62L183.08,21.36h-.92L169.72,50.54a15.92,15.92,0,0,1-3,5.06,5.93,5.93,0,0,1-2.88,1v1H175v-1a6.84,6.84,0,0,1-3.34-.8,1.85,1.85,0,0,1-.77-1.43,9,9,0,0,1,.89-3.08l2.41-5.6h13.72l2.15,5.1a11,11,0,0,1,1,3.64,1.79,1.79,0,0,1-.74,1.46,5.22,5.22,0,0,1-2.87.71v1h14v-1A5.57,5.57,0,0,1,198.13,55.47ZM175,43.82l6.17-14.33,6,14.33Z"/><path class="cls-1" d="M205.05,23.14a8.44,8.44,0,0,1,2.3.23,8.7,8.7,0,0,1,2.34,1.07A17,17,0,0,1,212,26.82V51.48c0,2-.19,3.26-.58,3.82a3.6,3.6,0,0,1-3.21,1.36H207v1h12.34v-1H218.1a4,4,0,0,1-3.06-1.1c-.47-.54-.71-1.9-.71-4.08V29.65L237.72,58.2h.94V28.31c0-2,.19-3.26.57-3.82a3.64,3.64,0,0,1,3.19-1.35h1.3v-1H231.33v1h1.22a3.9,3.9,0,0,1,3.06,1.09c.49.54.74,1.9.74,4.08V48.76L214.72,22.17H205.1Z"/><path class="cls-1" d="M330.06,23.14a8.44,8.44,0,0,1,2.3.23,8.7,8.7,0,0,1,2.34,1.07A17,17,0,0,1,337,26.82V51.48c0,2-.19,3.26-.57,3.82a3.63,3.63,0,0,1-3.22,1.36H332v1h12.34v-1h-1.25a4,4,0,0,1-3.06-1.1c-.47-.54-.71-1.9-.71-4.08V29.65L362.72,58.2h.94V28.31c0-2,.19-3.26.57-3.82a3.64,3.64,0,0,1,3.19-1.35h1.3v-1H356.34v1h1.23a3.9,3.9,0,0,1,3.06,1.09c.48.54.73,1.9.73,4.08V48.76L339.72,22.17H330.1Z"/><path class="cls-1" d="M314,56.66a4.87,4.87,0,0,1-2.38-.63,2.35,2.35,0,0,1-1.09-1.13,11.77,11.77,0,0,1-.34-3.55V28.44c0-2.12.21-3.47.65-4A3.74,3.74,0,0,1,314,23.16h1.29v-1H300.1v1h1.26a4.9,4.9,0,0,1,2.4.62,2.41,2.41,0,0,1,1.08,1.13,11.8,11.8,0,0,1,.34,3.55V51.37c0,2.13-.21,3.47-.63,4a3.78,3.78,0,0,1-3.19,1.28H300.1v1h15.2v-1Z"/><path class="cls-1" d="M397.35,56.66A4.83,4.83,0,0,1,395,56a2.32,2.32,0,0,1-1.1-1.13,11.77,11.77,0,0,1-.34-3.55V28.44c0-2.12.22-3.47.65-4a3.74,3.74,0,0,1,3.16-1.28h1.29v-1h-15.2v1h1.28a5,5,0,0,1,2.41.62,2.44,2.44,0,0,1,1.07,1.13,11.8,11.8,0,0,1,.34,3.55V51.37c0,2.13-.21,3.47-.63,4a3.78,3.78,0,0,1-3.19,1.28h-1.26v1h15.2v-1Z"/></g></g></svg>