<svg width="207" height="39" viewBox="0 0 207 39" xml:space="preserve" xmlns="http://www.w3.org/2000/svg"><path d="M187 17c.9-3.8 3.8-4.7 5.8-4.7 2.6 0 5 1.4 5.6 4.7H187zm16.2 4c.1-.7.3-1.5.3-2.5 0-5.2-3.9-10.8-10.7-10.8-6.5 0-10.9 5.2-10.9 11.1 0 6 4.6 10.9 10.9 10.9 4.9 0 8.8-3.5 10-7.2h-5.2c-.9 1.7-2.6 2.6-4.8 2.6-3.5 0-5.5-2.9-5.7-4.2h16.1zm-23.7-7c-.2-4.1-3.6-6.3-6.7-6.3-3.3 0-6.9 2.4-6.9 6.4 0 3.4 2.3 5.1 4.6 5.9 3.5 1.2 4.7 1.6 4.7 3.1 0 .9-.6 2.1-2.2 2.1-2 0-2.5-1.7-2.7-2.6h-5.1c.1 1.3.3 2.9 1.6 4.5 1.6 2 4.1 2.7 6.2 2.7 3.5 0 7.2-2.6 7.2-7.2 0-4.2-3.2-5.4-5.8-6.2-2.6-.9-3.5-1.1-3.5-2.3 0-.9.7-1.8 1.9-1.8.5 0 1.6.1 2 1.8h4.7zm-32.7 3c.9-3.8 3.8-4.7 5.8-4.7 2.6 0 5 1.4 5.6 4.7h-11.4zm16.2 4c.1-.7.3-1.5.3-2.5 0-5.2-3.9-10.8-10.7-10.8-6.5 0-10.9 5.2-10.9 11.1 0 6 4.6 10.9 10.9 10.9 4.9 0 8.8-3.5 10-7.2h-5.2c-.9 1.7-2.6 2.6-4.8 2.6-3.5 0-5.5-2.9-5.7-4.2H163zm-42.7 8.1h4.9v-9.8c0-1.7 0-3.9.9-5.2.9-1.4 2.5-1.8 3.4-1.8 4.2 0 4.2 4.9 4.2 6.6v10.2h4.9V17.9c0-1.6 0-5.1-1.9-7.3-1.7-2.1-4.4-2.9-6.2-2.9-3.1 0-4.8 1.7-5.7 2.5V8.4h-4.6v20.7zM112 18.5c0 4.1-2.9 6.7-5.9 6.7s-6.2-2.4-6.2-6.6c0-3.9 3.1-6.3 6-6.3 3.7-.1 6.1 3.3 6.1 6.2m.1-10.1v2.5h-.1c-.6-.8-2.3-3.2-6.6-3.2-5.2 0-10.5 4.4-10.5 10.8 0 6.9 5.5 11.2 10.6 11.2 4.2 0 6.1-2.4 6.8-3.3l.1.1c-.3 4.5-3.5 6.4-6.3 6.4-.8 0-3.2 0-5.1-2.3h-5.7c1.8 4.6 6.1 6.8 10.4 6.8 3.9 0 11.3-2.3 11.3-12.2V8.4h-4.9zM87.3 18.7c0 3.8-2.6 6.5-6 6.5-3.5 0-6.1-2.9-6.1-6.4 0-3.1 2.1-6.6 6.1-6.6 2.9 0 6 2.2 6 6.5M92 8.4h-4.5V11h-.1c-.1-.3-2.6-3.3-6.8-3.3-5.7 0-10.3 4.6-10.3 10.9 0 6.9 4.7 11.1 10 11.1 2.6 0 5.7-1.4 7.2-3.2v2.6H92V8.4zM62.3 29.1h4.9V1.5h-4.9v27.6zm-8.9 0h4.9V1.5h-4.9v27.6zm-8.5-10.4c0 3.8-2.6 6.5-6 6.5-3.5 0-6.1-2.9-6.1-6.4 0-3.1 2.1-6.6 6.1-6.6 2.9 0 6 2.2 6 6.5m4.7-10.3h-4.5V11H45c-.1-.3-2.6-3.3-6.8-3.3-5.7 0-10.3 4.6-10.3 10.9 0 6.9 4.7 11.1 10 11.1 2.6 0 5.7-1.4 7.2-3.2v2.6h4.5V8.4zM8.4 18.6c0-2.9 2.4-6.3 6.1-6.3 3.5 0 6.1 3.1 6.1 6.5 0 3.1-2.4 6.5-6.1 6.5-3.2-.1-6.1-2.9-6.1-6.7M25.2 1.5h-4.9v8.7C18.8 8.7 17 7.7 14 7.7c-4.9 0-10.5 4.1-10.5 11 0 6.7 5.3 11 10.5 11 3.5 0 5.7-1.7 6.6-3.2h.1V29h4.5V1.5z" style="fill:#1d1d1b"/></svg>