<?xml version="1.0" encoding="UTF-8"?><svg id="Livello_1" xmlns="http://www.w3.org/2000/svg" viewBox="0 0 538 176.58"><defs><style>.cls-1,.cls-2{fill-rule:evenodd;}.cls-1,.cls-3{fill:#fff;}.cls-2,.cls-4{fill:#ed125f;}</style></defs><path class="cls-2" d="M442.3,107.99c-.19,5.72-2.43,11.89-7.48,15.13-4.68,3.01-11.01,2.82-16.36,2.82h-26.15c-5.73,0-11.5.16-17.2-.51-6.28-.72-11.44-5.39-13.92-11.05-1.31-2.98-1.52-6.48-1.73-9.69-.19-3.02-.23-6.04-.23-9.06V29.97c0-6.12-.16-12.8,1.89-18.64,4.66-13.21,23.37-14.96,31.27-3.91,3.91,5.47,3.82,12.87,3.91,19.31.08,5.23.05,10.46.05,15.69v47.96s20.09.02,22.1.02c5.37,0,12.13-.37,16.74,2.85,4.71,3.28,6.92,9.22,7.11,14.74"/><path class="cls-2" d="M351.14,107.99c-.21,5.72-2.44,11.89-7.48,15.13-4.68,3.01-11.01,2.82-16.36,2.82h-26.16c-5.74,0-11.5.16-17.2-.51-6.27-.72-11.43-5.39-13.91-11.05-1.31-2.98-1.52-6.48-1.73-9.69-.19-3.02-.23-6.04-.23-9.06V29.97c0-6.1-.26-13,1.95-18.78,4.99-13.09,23.33-14.78,31.3-3.63,3.9,5.46,3.74,13.03,3.83,19.46.08,5.22.04,10.45.04,15.68v47.7s20.2,0,22.21,0c5.33,0,12.19-.37,16.72,2.92,4.64,3.37,6.81,9.14,7.02,14.67"/><path class="cls-2" d="M157.53,96.71c0,6.4.26,13.58-2.51,19.5-2.76,5.9-8.93,9.87-15.38,10.09-6.71.22-12.64-3.15-16.24-8.75-1.64-2.57-2.31-6.01-2.55-9.01-.27-3.36-.44-6.7-.49-10.08-.21-15.2-.03-30.42-.03-45.63v-22c0-5.4.05-10.83.96-16.17,1.1-6.46,5.71-11.38,11.78-13.62C138.67-1.03,145.95,0,150.45,4.07c2.49,2.25,4.42,4.83,5.46,8.06.96,2.97,1.24,6.18,1.4,9.28.25,4.81.21,9.6.21,14.41v60.9"/><path class="cls-2" d="M255.81,18.23c.13,6.04-3.54,11.8-8.69,14.82-5.22,3.07-11.54,3.27-17.45,3.27h-23.63c-6.18,0-12.41.26-18.58-.36-6.39-.64-12.31-3.03-15.98-8.5-3.54-5.28-4.13-13.04-.26-18.39,1.76-2.44,3.82-4.46,6.42-5.99,2.6-1.53,5.58-2.04,8.51-2.49,6.06-.94,12.45-.42,18.56-.42h23.47c6.19,0,12.64.09,18.36,2.76,5.5,2.57,9.38,9.28,9.26,15.3"/><path class="cls-2" d="M168.64,85.3c0,6.7-.12,13.42.3,20.11.2,3.14.43,6.34,1.71,9.27,1.39,3.18,3.62,5.53,6.28,7.7,4.8,3.92,11.96,3.58,17.83,3.58h21.53c6.79,0,13.63.22,20.43-.07,3.18-.14,6.62-.36,9.6-1.57,2.63-1.08,4.59-2.84,6.22-5.13,3.46-4.84,4.22-11.84,1.94-17.34-1.14-2.73-2.79-5.13-4.99-7.11-2.21-2-5.26-2.61-8.11-3-6.49-.88-13.35-.38-19.88-.38h-13.67c-.22,0-2.05.1-2.05-.08v-13.48c7.9.09,15.8.18,23.7.28,5.64.07,11.95.66,17.28-1.49,6.13-2.47,9.06-9.52,9.06-15.7,0-5.74-3.73-13.07-9.56-14.87-5.3-1.63-11.19-1.21-16.68-1.25-8.99-.07-17.98-.13-26.98-.19-5.76-.03-11.78-.28-17.49.54-3.28.47-5.87,1.43-8.48,3.46-2.58,2.01-4.72,4.58-5.97,7.62-1.79,4.34-1.67,9.34-1.82,13.95-.17,5.05-.2,10.12-.2,15.17"/><path class="cls-2" d="M538,18.23c.13,6.01-3.55,11.81-8.68,14.82-5.16,3.04-11.42,3.27-17.27,3.27h-23.56c-6.26,0-12.59.29-18.83-.36-6.38-.67-12.23-2.99-15.96-8.42-3.62-5.28-4.16-13.11-.29-18.48,1.77-2.45,3.81-4.45,6.42-5.99,2.66-1.57,5.72-2.08,8.72-2.53,6.06-.9,12.45-.38,18.55-.38h23.54c6.1,0,12.62.07,18.21,2.82,5.39,2.64,9.26,9.25,9.13,15.24"/><path class="cls-2" d="M450.8,85.3c0,6.7-.04,13.41.3,20.11.16,3.15.47,6.35,1.74,9.27,1.36,3.1,3.47,5.4,6.07,7.52,4.94,4.03,11.95,3.76,18.01,3.76h21.54c6.79,0,13.63.22,20.41-.07,6.25-.27,12.04-1.36,15.86-6.71,3.6-5.04,4.1-12.11,1.74-17.78-1.1-2.65-2.88-4.91-5-6.81-2.11-1.91-5.34-2.61-8.08-2.88-6.79-.66-13.69-.36-20.5-.36h-13.36c-.53,0-1.57.31-1.57-.32v-13.24c7.89.09,15.78.18,23.67.28,5.69.07,11.74.51,17.19-1.46,5.92-2.14,9.4-9.52,9.17-15.47-.22-6-3.44-13.09-9.55-15.13-5.15-1.72-11.1-1.2-16.47-1.25-9.02-.06-18.04-.12-27.06-.19-5.8-.03-11.73-.15-17.49.53-6.58.77-11.56,4.96-14.46,10.8-2.04,4.09-1.88,9.63-1.96,14.09-.09,5.1-.15,10.21-.2,15.31"/><path class="cls-2" d="M38.17,77.64c-.03,3.96-.06,7.92-.09,11.87,0,.63,0,1.27-.01,1.91,0,.31.73.16.98.16,2.34.04,4.67.08,7.01.13,6.14.11,12.55.05,18.53-1.55,14.05-3.74,18.68-20.37,15.99-33.16-1.33-6.33-4.73-11.89-10.34-15.26-5.7-3.42-12.54-4.06-19.05-4.28-6.9-.23-13.81-.08-20.72,0-6.34.08-13.62.18-19.45-2.65C-1.65,28.69-1.05,9.13,11.18,2.93,16.9.03,24.02.28,30.27.2c7.84-.1,15.69-.03,23.53-.03,6.07,0,12.14.42,18,2.1,6.67,1.92,12.69,4.8,18.48,8.63,11.1,7.35,19.51,19.25,23.6,31.82,4.32,13.26,4.17,27.48.05,40.77-3.9,12.57-11.95,24.51-22.83,32.07-5.49,3.81-11.71,7.15-18.26,8.71-6.12,1.46-12.1,2.04-18.38,2.04h-23.42c-6.23,0-13.44.19-19.17-2.57C-1.03,117.54.94,100.64.94,88.83c0-6.92-.11-13.86.27-20.79.35-6.4,1.12-12.99,6.31-17.41,4.9-4.18,11.08-5.82,17.34-3.96,6.06,1.8,10.8,7.1,12.1,13.27,1.21,5.78,1.13,11.82,1.2,17.7"/><rect class="cls-4" y="139" width="537.15" height="37.58"/><path class="cls-1" d="M432.38,157.11c0,11.17-8.01,19.04-19.1,19.04s-19.09-7.87-19.09-19.04c0-10.45,9.16-17.77,19.09-17.77s19.1,7.32,19.1,17.77M403.53,157.15c0,5.94,4.4,10.31,9.75,10.31s9.75-4.36,9.75-10.31c0-4.76-4.39-9.12-9.75-9.12s-9.75,4.36-9.75,9.12Z"/><rect class="cls-3" x="434.26" y="140.48" width="8.97" height="34.53"/><polygon class="cls-1" points="452.45 140.48 461.28 140.48 468.29 158.93 475.71 140.48 484.65 140.48 489.86 175.02 480.89 175.02 478.37 155.14 478.28 155.14 469.99 175.02 466.42 175.02 458.49 155.14 458.39 155.14 455.51 175.02 446.58 175.02 452.45 140.48"/><path class="cls-1" d="M527.36,157.11c0,11.17-8.01,19.04-19.1,19.04s-19.09-7.87-19.09-19.04c0-10.45,9.16-17.77,19.09-17.77s19.1,7.32,19.1,17.77M498.51,157.15c0,5.94,4.41,10.31,9.76,10.31s9.76-4.36,9.76-10.31c0-4.76-4.4-9.12-9.76-9.12s-9.76,4.36-9.76,9.12Z"/><path class="cls-1" d="M374.68,140.48h-12.73v7.12c.73.47,1.41,1.01,2.03,1.62,2.16,2.15,3.34,4.97,3.34,7.95s-1.2,5.96-3.37,8.13c-.61.61-1.28,1.15-1.99,1.6v8.13h12.73c9.58,0,17.54-7.56,17.54-17.27s-7.92-17.27-17.54-17.27M372.94,167.41h-2.01v-19.33h2.11c5.77,0,9.84,3.48,9.84,9.67,0,6.72-4.57,9.66-9.93,9.66Z"/><path class="cls-1" d="M289.89,157.87c-.33,4.65-4.4,8.11-8.96,8.11-4.88,0-9.07-3.89-9.07-8.83,0-2.25,1.03-4.52,2.61-6.07,1.77-1.75,4.03-2.58,6.46-2.58,1.77,0,3.5.48,4.97,1.45,1.1.72,2.52,2.03,2.95,3.33h-1.92c-1.19-1.99-3.64-3.16-6-3.16-1.81,0-3.64.62-5.04,1.91-1.4,1.28-2.33,3.22-2.33,5.14,0,4.12,3.41,7.19,7.44,7.19,3.02,0,6-1.99,6.85-4.95h-9.47v-1.53h11.51Z"/><path class="cls-1" d="M292.59,148.76h3.77c1.6,0,3.39.02,4.81.83,1.72.99,2.64,2.72,2.64,4.69,0,2.77-2.25,5.02-5,5.08l4.77,6.32h-2.11l-5.76-7.66h.51c1.19,0,2.56.04,3.68-.47,1.4-.63,2.2-1.92,2.2-3.43,0-1.17-.62-2.36-1.58-3.02-1.12-.8-2.5-.8-3.83-.8h-2.42v15.39h-1.69v-16.93Z"/><path class="cls-1" d="M307.69,148.76v10.29c0,1.22.12,2.5.78,3.55.71,1.12,1.98,1.77,3.3,1.77,1.18,0,2.4-.54,3.12-1.53.82-1.1.94-2.46.94-3.79v-10.29h1.69v10.29c0,1.72-.16,3.36-1.27,4.79-1.05,1.4-2.74,2.14-4.48,2.14s-3.34-.71-4.42-2.01c-1.17-1.44-1.35-3.14-1.35-4.92v-10.29h1.69Z"/><path class="cls-1" d="M320.77,148.76h4.44c1.58.02,3.16.06,4.54.92,1.47.92,2.22,2.48,2.22,4.17,0,1.55-.64,2.98-1.92,3.92-1.31.96-2.82,1.1-4.4,1.1h-3.18v6.82h-1.69v-16.93ZM325.37,157.34c1.19,0,2.38-.05,3.41-.69.96-.61,1.48-1.72,1.48-2.82,0-1.47-.78-2.61-2.11-3.16-1.11-.49-2.35-.37-3.52-.37h-2.17v7.04h2.9Z"/><path class="cls-1" d="M334.08,148.76h4.45c1.58.02,3.16.06,4.53.92,1.46.92,2.22,2.48,2.22,4.17,0,1.55-.64,2.98-1.93,3.92-1.3.96-2.81,1.1-4.4,1.1h-3.18v6.82h-1.7v-16.93ZM338.69,157.34c1.19,0,2.37-.05,3.41-.69.96-.61,1.49-1.72,1.49-2.82,0-1.47-.78-2.61-2.11-3.16-1.12-.49-2.36-.37-3.52-.37h-2.17v7.04h2.91Z"/><path class="cls-1" d="M364.56,157.16c0,4.92-4.05,8.82-8.94,8.82s-8.93-3.82-8.93-8.67,4.03-8.82,8.93-8.82,8.94,3.82,8.94,8.67M355.63,150.09c-3.99.02-7.26,3.23-7.26,7.22s3.41,7.05,7.26,7.05,7.23-3.19,7.23-7.19-3.36-7.05-7.23-7.05v-.02Z"/></svg>