<?xml version="1.0" encoding="utf-8"?>
<!-- Generator: Adobe Illustrator 21.0.2, SVG Export Plug-In . SVG Version: 6.00 Build 0)  -->
<svg version="1.1" id="Livello_1" xmlns="http://www.w3.org/2000/svg" xmlns:xlink="http://www.w3.org/1999/xlink" x="0px" y="0px"
	 viewBox="0 0 566.9 102.6" enable-background="new 0 0 566.9 102.6" xml:space="preserve">
<g>
	<polygon points="0,1.9 23.2,1.9 23.2,41.9 24.7,41.9 45.9,1.9 70.7,1.9 45.9,44.8 73.5,100.7 47.3,100.7 29.5,63.5 23.2,74.3 
		23.2,100.7 0,100.7 	"/>
	<rect x="156" y="1.9" width="23.2" height="98.8"/>
	<polygon points="276.1,20.8 256.8,20.8 256.8,1.9 318.6,1.9 318.6,20.8 299.3,20.8 299.3,100.7 276.1,100.7 	"/>
	<polygon points="398.4,1.9 421.6,1.9 421.6,81.9 452.3,81.9 452.3,100.7 398.4,100.7 	"/>
	<rect x="459.6" y="1.9" width="23.2" height="98.8"/>
	<path d="M368.8,1.9H338l-23.7,98.8h24.1l3.5-18.8H365l3.5,18.8h24.1L368.8,1.9z M345.1,63.9l7.5-43.2h1.5l7.6,43.2H345.1z"/>
	<path d="M210.3,74c0,10,4.2,13.1,10.7,13.1c5.7,0,9.9-3.1,9.9-11.8c0-21.3-43-9.1-43-46c0-15.8,8.7-29.4,32.6-29.4
		c23.2,0,31.9,12.3,31.9,24.6v4.7h-22.3V26c0-5.9-3.8-10.3-9.6-10.3c-5,0-9.4,3-9.4,10.2c0,20.6,43,10.4,43,45.3
		c0,22.4-12.1,31.4-33.4,31.4c-16.9,0-32.8-5.7-32.8-26.4v-5.7h22.4V74z"/>
	<path d="M144.3,76.6c0-13.1-1.1-22.2-15.9-24.3v-1.5c10.5-3,16.6-9,16.6-23.2c0-13.6-6.8-25.7-26.6-25.7h-39v98.8h23.2V59.9h8.9
		c7.3,0,9.7,3.6,9.7,20.8c0,13.8,0.6,17.5,3.1,20.1h24.4v-1.5C144.6,96.8,144.3,96,144.3,76.6 M109.6,43.4h-7V30.8V18.3h7
		c8.6,0,12.1,5,12.1,12.6C121.7,38.4,118.2,43.4,109.6,43.4"/>
	<path d="M543.2,1.9h-30.8l-23.7,98.8h24.1l3.5-18.8h23.2l3.5,18.8h24.1L543.2,1.9z M519.5,63.9l7.5-43.2h1.5l7.6,43.2H519.5z"/>
</g>
<rect x="177.5" y="419.7" fill="none" width="841.9" height="595.3"/>
</svg>
