<?xml version="1.0" encoding="utf-8"?>
<!-- Generator: Adobe Illustrator 23.1.1, SVG Export Plug-In . SVG Version: 6.00 Build 0)  -->
<svg version="1.1" id="Livello_1" xmlns="http://www.w3.org/2000/svg" xmlns:xlink="http://www.w3.org/1999/xlink" x="0px" y="0px"
	 viewBox="0 0 226.8 51" style="enable-background:new 0 0 226.8 51;" xml:space="preserve">
<style type="text/css">
	.st0{fill:#64645C;}
</style>
<path class="st0" d="M24.3,29.2H29V2.9h-7.4l-4.8,20.4h-0.1L12,2.9H4.4v26.3h4.7v-22h0.1l5.2,22H19l5.2-22h0.1
	C24.3,7.2,24.3,29.2,24.3,29.2z M50.1,29.2l7.7-26.3h-5.2l-5.8,21h-0.1L41,2.9h-5.2l7.7,26.3C43.5,29.2,50.1,29.2,50.1,29.2z
	 M86.5,29.2l-9.2-16.3l8.6-10H80L69.6,14.7V2.9h-5v26.3h5v-7.5l4.2-4.8l6.9,12.3C80.7,29.2,86.5,29.2,86.5,29.2z M95.1,17.4h4.9
	v-2.8h-4.9V9.7h-2.9v4.9h-4.9v2.8h4.9v4.9h2.9V17.4z M105.4,29.2h5V2.9h-5V29.2z M128.8,7.5h7.2V2.9h-19.4v4.6h7.2v21.7h5L128.8,7.5
	L128.8,7.5z M152.8,19.8h-7.3l3.6-12.1h0.1L152.8,19.8z M155.7,29.2h5.2l-8.8-26.3h-5.8l-8.8,26.3h5.2l1.5-5.1h10L155.7,29.2z
	 M166.5,29.2h15.6v-4.6h-10.7V2.9h-5L166.5,29.2L166.5,29.2z M189,29.2h5V2.9h-5V29.2z M215.2,19.8h-7.3l3.6-12.1h0.1L215.2,19.8z
	 M223.2,29.2l-8.8-26.3h-5.8l-8.8,26.3h5.2l1.5-5.1h10l1.5,5.1H223.2z"/>
<g>
	<path class="st0" d="M167.4,47v-3.2c0-1.1,0-1.6-0.2-2.1c-0.2-0.4-0.7-1.1-1.9-1.1c-0.8,0-1.3,0.3-1.5,0.5
		c-0.3,0.3-0.4,0.5-0.4,0.7v-1.1h-0.8V47h0.8v-2.7c0-0.7,0-1.3,0.1-1.6c0.1-0.5,0.5-1,0.9-1.2c0.3-0.2,0.7-0.2,0.8-0.2
		s0.5,0,0.8,0.2c0.1,0.1,0.3,0.2,0.5,0.5c0.1,0.4,0.1,0.9,0.1,1.7V47H167.4z M160.1,43.3h-3.9c0-0.3,0.1-0.6,0.2-0.9
		c0.2-0.3,0.7-1.1,1.8-1.1C158.9,41.3,160,41.7,160.1,43.3 M161,45.4l-0.7-0.2c-0.6,1.2-1.4,1.3-2,1.3c-1.4,0-1.9-1-2-1.5
		c-0.1-0.2-0.1-0.5-0.1-1h4.8v-0.2c0-0.8-0.3-1.6-0.8-2.2c-0.7-0.8-1.6-0.9-2-0.9c-1.3,0-2.3,0.8-2.7,1.9c-0.2,0.5-0.2,1.1-0.2,1.3
		c0,0.4,0.1,2.2,1.5,3c0.6,0.3,1.2,0.3,1.4,0.3c1.3,0,1.9-0.6,2.2-1C160.8,45.8,161,45.5,161,45.4 M153.8,47v-3.5
		c0-1.1-0.1-1.6-0.4-2.1c-0.5-0.7-1.4-0.8-1.7-0.8c-1,0-1.5,0.5-1.7,0.8c-0.1,0.1-0.2,0.3-0.2,0.3v-4H149V47h0.8v-2.7
		c0-1.1,0-1.6,0.3-2.1c0.2-0.3,0.6-0.9,1.6-0.9c0.3,0,0.5,0,0.7,0.1c0.6,0.3,0.7,0.9,0.7,1.5c0,0.2,0,0.4,0,0.6V47H153.8z
		 M147.7,45.6l-0.8-0.2c-0.4,0.7-0.9,1-1.7,1c-0.4,0-0.7-0.1-0.8-0.2c-0.3-0.2-0.5-0.4-0.6-0.5c-0.6-0.7-0.6-1.8-0.6-1.9
		c0-0.3,0-1.4,0.8-2.1c0.5-0.4,1.1-0.5,1.3-0.5c0.7,0,1.4,0.4,1.7,1l0.7-0.2c-0.1-0.2-0.2-0.5-0.5-0.9c-0.3-0.3-0.8-0.7-1.8-0.7
		c-1.3,0-2.4,0.7-2.8,2c-0.1,0.4-0.2,0.8-0.2,1.3c0,0.4,0,1.6,1,2.5c0.7,0.7,1.6,0.7,1.9,0.7c1,0,1.5-0.4,1.8-0.6
		C147.3,46.3,147.5,46,147.7,45.6 M141.5,46.8V46c-0.2,0.2-0.5,0.4-0.9,0.4c-0.5,0-0.5-0.5-0.5-0.9v-0.7v-3.4h1.4v-0.7h-1.4V38h-0.7
		v2.7h-1.3v0.7h1.3v3.9c0,0.3,0,1,0.1,1.2c0.2,0.5,0.7,0.5,0.8,0.5s0.1,0,0.2,0C141,47.1,141.4,47,141.5,46.8 M136.9,40.8h-0.8V47
		h0.8V40.8z M136.9,38.1h-0.8v1.2h0.8V38.1z M135,47l-3.9-5.6l3.6-3.7h-1.2l-5,5.1v-5.1h-0.9V47h0.9v-3l2-2l3.4,5H135z M121.7,43.3
		h-3.9c0-0.3,0.1-0.6,0.2-0.9c0.2-0.3,0.7-1.1,1.8-1.1C120.4,41.3,121.5,41.7,121.7,43.3 M122.6,45.4l-0.7-0.2
		c-0.6,1.2-1.5,1.3-2,1.3c-1.4,0-1.9-1-2-1.5c-0.1-0.2-0.1-0.5-0.1-1h4.8v-0.2c0-0.8-0.3-1.6-0.8-2.2c-0.7-0.8-1.6-0.9-2-0.9
		c-1.3,0-2.3,0.8-2.7,1.9c-0.2,0.5-0.2,1.1-0.2,1.3c0,0.4,0.1,2.2,1.5,3c0.6,0.3,1.2,0.3,1.4,0.3c1.3,0,1.9-0.6,2.2-1
		C122.4,45.8,122.5,45.5,122.6,45.4 M115.3,47v-3.5c0-1.1-0.1-1.6-0.4-2.1c-0.5-0.7-1.4-0.8-1.7-0.8c-1,0-1.5,0.5-1.7,0.8
		c-0.1,0.1-0.2,0.3-0.2,0.3v-4h-0.8V47h0.8v-2.7c0-1.1,0-1.6,0.3-2.1c0.2-0.3,0.6-0.9,1.6-0.9c0.3,0,0.5,0,0.7,0.1
		c0.6,0.3,0.7,0.9,0.7,1.5c0,0.2,0,0.4,0,0.6V47H115.3z M109.3,46.8V46c-0.2,0.2-0.5,0.4-0.9,0.4c-0.5,0-0.5-0.5-0.5-0.9v-0.7v-3.4
		h1.4v-0.7h-1.4V38h-0.7v2.7h-1.3v0.7h1.3v3.9c0,0.3,0,1,0.1,1.2c0.2,0.5,0.7,0.5,0.8,0.5c0.1,0,0.1,0,0.2,0
		C108.8,47.1,109.1,47,109.3,46.8 M101.4,47v-3.2c0-1.1,0-1.6-0.2-2.1c-0.2-0.4-0.7-1.1-1.9-1.1c-0.8,0-1.3,0.3-1.5,0.5
		c-0.3,0.3-0.4,0.5-0.4,0.7v-1.1h-0.8V47h0.8v-2.7c0-0.7,0-1.3,0.1-1.6c0.1-0.5,0.5-1,0.9-1.2c0.3-0.2,0.7-0.2,0.8-0.2
		c0.1,0,0.5,0,0.8,0.2c0.1,0.1,0.3,0.2,0.5,0.5c0.1,0.4,0.1,0.9,0.1,1.7V47H101.4z M94.6,40.8h-0.8V47h0.8V40.8z M94.6,38.1h-0.8
		v1.2h0.8V38.1z M88,43.3h-3.9c0-0.3,0.1-0.6,0.2-0.9c0.2-0.3,0.7-1.1,1.8-1.1C86.8,41.3,87.8,41.7,88,43.3 M88.9,45.4l-0.7-0.2
		c-0.6,1.2-1.4,1.3-2,1.3c-1.4,0-1.9-1-2-1.5c-0.1-0.2-0.1-0.5-0.1-1h4.8v-0.2c0-0.8-0.3-1.6-0.8-2.2c-0.7-0.8-1.6-0.9-2-0.9
		c-1.3,0-2.3,0.8-2.7,1.9c-0.2,0.5-0.2,1.1-0.2,1.3c0,0.4,0.1,2.2,1.5,3c0.6,0.3,1.2,0.3,1.4,0.3c1.3,0,1.9-0.6,2.2-1
		C88.7,45.8,88.8,45.5,88.9,45.4 M81.7,47v-6.2h-0.8v2.7c0,0.8,0.1,1.6-0.4,2.2c-0.5,0.7-1.2,0.7-1.5,0.7c-0.9,0-1.2-0.5-1.3-0.9
		c-0.1-0.4-0.1-0.8-0.1-1.5v-3.2h-0.8v3.1c0,1,0,1.6,0.2,2c0.2,0.6,0.6,1,1.2,1.2c0.3,0.1,0.6,0.1,0.7,0.1c0.3,0,1.2,0,1.7-0.8
		c0.1-0.1,0.1-0.2,0.2-0.5V47H81.7z M74.9,37.8h-0.8V47h0.8V37.8z M71.4,44.2c0,0.6-0.1,0.8-0.2,1.1c-0.3,0.7-1.2,1.2-2,1.2
		c-0.1,0-0.8,0-1.1-0.6c0-0.1-0.1-0.2-0.1-0.4c0-0.3,0.2-0.6,0.4-0.8c0.4-0.3,1.4-0.5,2.6-0.8l0.4-0.1
		C71.4,43.8,71.4,44.2,71.4,44.2z M73,47v-0.6c-0.2,0-0.5,0-0.7-0.1c-0.2-0.2-0.2-0.6-0.2-1.2v-2c0-0.6,0-1.3-0.4-1.8
		s-1.3-0.7-1.9-0.7c-1.2,0-1.8,0.5-2.1,1c-0.3,0.4-0.3,1-0.4,1.1l0.8,0.1c0-0.3,0-0.7,0.2-1s0.6-0.5,1.4-0.5c0.9,0,1.3,0.4,1.4,0.8
		c0.1,0.2,0.1,0.4,0.1,0.6V43l-0.7,0.2c-0.4,0.1-0.8,0.2-1.2,0.3c-0.7,0.2-1.4,0.4-1.9,1c-0.3,0.4-0.3,0.8-0.3,1
		c0,0.6,0.3,1,0.5,1.2c0.3,0.3,0.7,0.5,1.5,0.5c1,0,1.6-0.4,1.9-0.7c0.1-0.2,0.2-0.3,0.3-0.5c0,0.3,0,0.6,0.3,0.8
		C71.9,46.9,72.3,47,73,47 M67.2,37.8h-0.9l-2.9,8l-2.8-8h-1L63,47h0.8L67.2,37.8z M55.1,47v-3.1c0-1.6,0-2.5-0.7-3
		c-0.3-0.2-0.7-0.3-1.1-0.3c-1,0-1.5,0.6-1.7,0.9c-0.1,0.1-0.2,0.3-0.2,0.6c0-0.3-0.1-0.5-0.1-0.6c-0.1-0.4-0.6-0.9-1.6-0.9
		c-0.7,0-1.3,0.3-1.7,0.9c-0.1,0.2-0.2,0.4-0.2,0.5v-1.3H47V47h0.8v-2.5c0-1.2,0-1.8,0.3-2.3c0.4-0.7,1-0.8,1.4-0.8s0.8,0.2,1,0.5
		s0.2,0.8,0.2,1.7V47h0.8v-2.6c0-1.1,0-1.6,0.2-2.1c0.3-0.6,0.8-1,1.5-1c0.1,0,0.5,0,0.8,0.2c0.5,0.4,0.4,1,0.4,2.1V47H55.1z M45,47
		v-6.2h-0.8v2.7c0,0.8,0.1,1.6-0.4,2.2c-0.5,0.7-1.2,0.7-1.5,0.7c-0.9,0-1.2-0.5-1.3-0.9c0-0.3,0-0.7,0-1.5v-3.2h-0.8v3.1
		c0,1,0,1.6,0.2,2c0.2,0.6,0.6,1,1.2,1.2c0.3,0.1,0.6,0.1,0.7,0.1c0.3,0,1.2,0,1.7-0.8c0.1-0.1,0.1-0.2,0.2-0.5V47H45z M38.2,47
		v-3.1c0-1.6,0-2.5-0.7-3c-0.3-0.2-0.7-0.3-1.1-0.3c-1,0-1.5,0.6-1.7,0.9c-0.1,0.1-0.2,0.3-0.2,0.6c0-0.3-0.1-0.5-0.1-0.6
		c-0.1-0.4-0.6-0.9-1.6-0.9c-0.7,0-1.3,0.3-1.7,0.9c-0.1,0.2-0.2,0.4-0.2,0.5v-1.3h-0.8V47h0.8v-2.5c0-1.2,0-1.8,0.3-2.3
		c0.4-0.7,1-0.8,1.4-0.8s0.8,0.2,1,0.5s0.2,0.8,0.2,1.7V47h0.8v-2.6c0-1.1,0-1.6,0.2-2.1c0.3-0.6,0.8-1,1.5-1c0.1,0,0.5,0,0.8,0.2
		c0.5,0.4,0.4,1,0.4,2.1V47H38.2z M28.1,40.8h-0.8V47h0.8V40.8z M28.1,38.1h-0.8v1.2h0.8V38.1z M26.1,47l-2.3-3.2l2.1-3h-0.8
		l-1.7,2.4l-1.6-2.4h-0.9l2.1,3L20.7,47h0.8l1.9-2.6l1.8,2.6H26.1z M18.7,44.2c0,0.6-0.1,0.8-0.2,1.1c-0.3,0.7-1.2,1.2-2,1.2
		c-0.1,0-0.8,0-1.1-0.6c0-0.1-0.1-0.2-0.1-0.4c0-0.3,0.2-0.6,0.4-0.8c0.4-0.3,1.4-0.5,2.6-0.8l0.4-0.1
		C18.7,43.8,18.7,44.2,18.7,44.2z M20.3,47v-0.6c-0.2,0-0.5,0-0.7-0.1c-0.2-0.2-0.2-0.6-0.2-1.2v-2c0-0.6,0-1.3-0.4-1.8
		s-1.3-0.7-1.9-0.7c-1.2,0-1.8,0.5-2.1,1c-0.3,0.4-0.3,1-0.4,1.1l0.8,0.1c0-0.3,0-0.7,0.2-1s0.6-0.5,1.4-0.5c0.9,0,1.3,0.4,1.4,0.8
		c0.1,0.2,0.1,0.4,0.1,0.6V43l-0.7,0.2c-0.4,0.1-0.8,0.2-1.2,0.3c-0.7,0.2-1.4,0.4-1.9,1c-0.3,0.4-0.3,0.8-0.3,1
		c0,0.6,0.3,1,0.5,1.2c0.3,0.3,0.7,0.5,1.5,0.5c1,0,1.6-0.4,1.9-0.7c0.1-0.2,0.2-0.3,0.3-0.5c0,0.3,0,0.6,0.3,0.8
		C19.2,46.9,19.6,47,20.3,47 M12.8,47v-9.2h-1.1l-3,7.8l-3.1-7.8h-1V47h0.9l-0.1-7.8l3,7.8H9l3-7.8V47H12.8z"/>
</g>
</svg>
