<?xml version="1.0" encoding="UTF-8"?>
<svg id="Livello_1" data-name="Livello 1" xmlns="http://www.w3.org/2000/svg" viewBox="0 0 793 229">
  <defs>
    <style>
      .cls-1 {
        fill: #fff;
      }

      .cls-2 {
        fill: #b2272c;
      }
    </style>
  </defs>
  <g>
    <g>
      <polygon class="cls-1" points="169.78 23.85 47.74 23.85 47.74 126.79 57.99 126.79 57.99 34.1 169.66 34.1 169.78 23.85"/>
      <polygon class="cls-1" points="216.72 125.36 216.73 194.76 146.69 194.76 146.69 205.01 226.98 205.01 226.98 115.11 216.72 125.36"/>
    </g>
    <polygon class="cls-2" points="229.75 23.93 167.01 23.93 166.88 34.18 212.88 34.18 165.62 125.37 216.74 125.37 226.99 115.12 182.48 115.12 229.75 23.93"/>
    <g>
      <path class="cls-2" d="M711.45,86.21l6.14-13.51h.08l6.22,13.51h-12.45ZM691.64,105.86h9c1.64,0,2.53-.98,2.95-1.97l2.95-6.55h22.27l2.95,6.47c.74,1.56,1.39,2.05,2.87,2.05h9.08c1.23,0,1.89-1.06,1.39-2.13l-25.62-55.09c-.25-.49-.82-.9-1.39-.9h-.82c-.57,0-1.14.41-1.39.9l-25.62,55.09c-.49,1.07.16,2.13,1.39,2.13M621.97,104.3c0,.82.74,1.56,1.56,1.56h9.74c.9,0,1.55-.74,1.55-1.56v-30.53h.08l32.33,32.5c.17.16.82.4,1.06.4h1.31c.82,0,1.55-.65,1.55-1.47v-55.09c0-.82-.73-1.56-1.55-1.56h-9.82c-.9,0-1.55.74-1.55,1.56v29.06h-.08l-32.66-31.43h-2.05c-.82,0-1.55.66-1.55,1.47l.08,55.09ZM548.05,77.29c0,16.37,13.1,29.3,29.39,29.3,11.87,0,20.3-5.32,20.3-5.32.32-.24.65-.9.65-1.31l-.08-22.02c0-.82-.65-1.56-1.47-1.56h-16.46c-.9,0-1.56.65-1.56,1.56v8.1c0,.82.66,1.47,1.56,1.47h5.16v4.75c-2.46.99-4.91,1.31-7.29,1.31-8.92,0-16.21-7.37-16.21-16.29s7.21-16.54,16.13-16.54c4.01,0,7.62,1.07,10.72,3.93.66.49,1.56.49,2.21-.08l6.47-6.87c.65-.66.57-1.64-.16-2.21-5.57-4.83-13.1-7.7-19.98-7.7-16.29,0-29.39,13.1-29.39,29.47M499.91,86.21l6.14-13.51h.08l6.22,13.51h-12.44ZM480.1,105.86h9.01c1.63,0,2.53-.98,2.94-1.97l2.95-6.55h22.27l2.94,6.47c.74,1.56,1.39,2.05,2.86,2.05h9.09c1.23,0,1.88-1.06,1.39-2.13l-25.62-55.09c-.24-.49-.82-.9-1.39-.9h-.81c-.58,0-1.15.41-1.4.9l-25.62,55.09c-.49,1.07.16,2.13,1.39,2.13M398.23,104.05c-.16,1.07.57,1.8,1.56,1.8h9.66c.82,0,1.47-.66,1.56-1.31l3.6-25.3h.16l13.84,26.53c.24.49.9.9,1.39.9h1.47c.41,0,1.15-.4,1.39-.9l13.76-26.53h.16l3.69,25.3c.08.66.82,1.31,1.56,1.31h9.66c.99,0,1.72-.74,1.56-1.8l-9.25-55.01c-.08-.74-.82-1.31-1.47-1.31h-1.31c-.41,0-1.15.33-1.39.82l-18.99,35.36h-.16l-18.99-35.36c-.25-.49-.98-.82-1.4-.82h-1.31c-.65,0-1.39.57-1.47,1.31l-9.25,55.01ZM349.12,86.21l6.14-13.51h.08l6.22,13.51h-12.44ZM329.3,105.86h9.01c1.63,0,2.53-.98,2.94-1.97l2.95-6.55h22.27l2.94,6.47c.74,1.56,1.39,2.05,2.86,2.05h9.09c1.23,0,1.88-1.06,1.39-2.13l-25.63-55.09c-.24-.49-.82-.9-1.39-.9h-.82c-.57,0-1.15.41-1.39.9l-25.62,55.09c-.5,1.07.16,2.13,1.39,2.13M273.39,104.3c0,.82.74,1.56,1.56,1.56h35.53c.9,0,1.55-.74,1.55-1.56v-8.92c0-.82-.65-1.55-1.55-1.55h-17.85v-.17l21.04-42.48v-1.07c0-.82-.74-1.56-1.55-1.56h-34.79c-.82,0-1.56.74-1.56,1.56v8.92c0,.82.74,1.56,1.56,1.56h17.85v.16l-21.78,42.08v1.47Z"/>
      <path class="cls-1" d="M707.39,159.48l11.32-25.44h.62c3.81,8.46,7.53,16.99,11.32,25.44h-23.26ZM695.14,177.94h3.1c.7,0,1.17-.47,1.32-.85l5.66-12.8h27.53l5.74,12.8c.16.38.62.85,1.32.85h3.1c1.16,0,1.78-1.01,1.31-2.01l-23.42-52.19c-.23-.46-.62-.85-1.32-.85h-.77c-.7,0-1.09.39-1.32.85l-23.57,52.19c-.46,1.01.16,2.01,1.32,2.01M628.49,176.46c0,.77.7,1.47,1.47,1.47h3.1c.77,0,1.47-.7,1.47-1.47v-51.34c0-.78-.7-1.47-1.47-1.47h-3.1c-.77,0-1.47.7-1.47,1.47v51.34ZM539.52,176.46c0,.77.62,1.47,1.47,1.47h26.83c.86,0,1.47-.7,1.47-1.47v-2.25c0-.77-.62-1.47-1.47-1.47h-22.33v-47.62c0-.78-.7-1.47-1.47-1.47h-3.03c-.85,0-1.47.7-1.47,1.47v51.34ZM443.33,159.48l11.32-25.44h.63c3.8,8.46,7.52,16.99,11.32,25.44h-23.27ZM431.08,177.94h3.1c.7,0,1.17-.47,1.32-.85l5.66-12.8h27.53l5.74,12.8c.16.38.62.85,1.32.85h3.1c1.17,0,1.78-1.01,1.32-2.01l-23.42-52.19c-.23-.46-.62-.85-1.32-.85h-.77c-.7,0-1.08.39-1.32.85l-23.57,52.19c-.47,1.01.15,2.01,1.32,2.01M359.86,176.46c0,.77.69,1.47,1.47,1.47h2.95c.77,0,1.47-.7,1.47-1.47v-47.62h13.49c.85,0,1.47-.7,1.47-1.47v-2.25c0-.78-.62-1.47-1.47-1.47h-32.88c-.85,0-1.47.7-1.47,1.47v2.25c0,.77.62,1.47,1.47,1.47h13.5v47.62ZM279.41,176.46c0,.77.7,1.47,1.47,1.47h3.11c.77,0,1.47-.7,1.47-1.47v-51.34c0-.78-.7-1.47-1.47-1.47h-3.11c-.77,0-1.47.7-1.47,1.47v51.34Z"/>
    </g>
  </g>
  <g>
    <path class="cls-2" d="M48.95,165.7l1.57-2.77c.27-.43.9-.37,1.13-.2.13.07,2.53,1.83,4.73,1.83,1.33,0,2.3-.83,2.3-2,0-1.4-1.17-2.47-3.43-3.37-2.87-1.13-6.47-3.37-6.47-7.37,0-3.3,2.57-6.63,7.7-6.63,3.47,0,6.13,1.77,7.13,2.5.4.23.33.83.2,1.07l-1.7,2.57c-.23.37-.83.67-1.13.43-.3-.17-2.73-2-4.77-2-1.2,0-2.1.8-2.1,1.7,0,1.23,1,2.17,3.63,3.23,2.6,1.03,6.73,3.07,6.73,7.6,0,3.43-2.97,6.9-7.87,6.9-4.33,0-6.73-1.8-7.5-2.57-.33-.33-.43-.47-.17-.93Z"/>
    <path class="cls-2" d="M68.55,146.17c0-.33.3-.63.63-.63h4c.33,0,.63.3.63.63v22.06c0,.33-.3.63-.63.63h-4c-.33,0-.63-.3-.63-.63v-22.06Z"/>
    <path class="cls-2" d="M79.51,145.8c0-.33.3-.6.63-.6h.83l13.3,12.8h.03v-11.83c0-.33.27-.63.63-.63h4c.33,0,.63.3.63.63v22.43c0,.33-.3.6-.63.6h-.53c-.1,0-.37-.1-.43-.17l-13.17-13.23h-.03v12.43c0,.33-.27.63-.63.63h-3.97c-.33,0-.63-.3-.63-.63l-.03-22.43Z"/>
    <path class="cls-2" d="M115.64,145.2c3.33,0,5.8,1.03,8.07,3.1.3.27.3.67.03.93l-2.6,2.7c-.23.23-.6.23-.83,0-1.23-1.1-2.87-1.7-4.5-1.7-3.77,0-6.53,3.13-6.53,6.87s2.8,6.77,6.57,6.77c1.57,0,3.27-.57,4.47-1.6.23-.2.67-.2.87.03l2.6,2.77c.23.23.2.67-.03.9-2.27,2.2-5.13,3.23-8.1,3.23-6.67,0-12.03-5.3-12.03-11.97s5.37-12.03,12.03-12.03Z"/>
    <path class="cls-2" d="M127.73,146.17c0-.33.27-.63.63-.63h13.8c.37,0,.63.3.63.63v3.63c0,.33-.27.63-.63.63h-9.23v4.13h7.6c.33,0,.63.3.63.63v3.63c0,.37-.3.63-.63.63h-7.6v4.5h9.23c.37,0,.63.3.63.63v3.63c0,.33-.27.63-.63.63h-13.8c-.37,0-.63-.3-.63-.63v-22.06Z"/>
    <path class="cls-2" d="M52.05,188.94h-3.2c-.33,0-.6-.3-.6-.63v-2.1c0-.13.1-.4.2-.5l4.87-3.8h3.07c.33,0,.6.3.6.63v21.4c0,.33-.27.63-.6.63h-3.7c-.37,0-.63-.3-.63-.63v-15Z"/>
    <path class="cls-2" d="M63.98,201.04c1.57-.5,6-2.03,6.7-5.47-.87.37-2.27.67-3.17.67-3.13,0-6.63-2.3-6.63-7.23,0-4.2,3.47-7.63,7.63-7.63,5.17,0,8.03,3.87,8.03,9.07,0,9.8-8.13,13.77-11.2,14.66-.5.13-.87-.07-1.03-.53l-.97-2.57c-.13-.4-.03-.77.63-.97ZM71.78,189.18c0-1.73-1.43-3.2-3.2-3.2s-3.2,1.47-3.2,3.2,1.43,3.23,3.2,3.23,3.2-1.47,3.2-3.23Z"/>
    <path class="cls-2" d="M90.21,181.18c.5-.17.87.07,1.03.53l.97,2.57c.13.4.03.77-.63.97-1.57.5-6,2.03-6.7,5.47.87-.37,2.27-.67,3.17-.67,3.13,0,6.63,2.3,6.63,7.23,0,4.2-3.47,7.63-7.63,7.63-5.17,0-8.03-3.87-8.03-9.07,0-9.8,8.33-13.77,11.2-14.66ZM86.98,200.31c1.77,0,3.2-1.47,3.2-3.2s-1.43-3.23-3.2-3.23-3.2,1.47-3.2,3.23,1.43,3.2,3.2,3.2Z"/>
    <path class="cls-2" d="M97.57,193.24c0-7.3,3.1-11.67,8.53-11.67s8.53,4.37,8.53,11.67-3.1,11.67-8.53,11.67-8.53-4.37-8.53-11.67ZM109.27,193.24c0-4.37-1.13-6.83-3.17-6.83s-3.17,2.47-3.17,6.83,1.13,6.83,3.17,6.83,3.17-2.43,3.17-6.83Z"/>
  </g>
</svg>